<svg width="428" height="926" viewBox="0 0 428 926" fill="none" xmlns="http://www.w3.org/2000/svg">
<g clip-path="url(#clip0_407_835)">
<rect width="428" height="926" fill="white"/>
<circle cx="73.5" cy="70.5" r="117.5" fill="url(#paint0_linear_407_835)"/>
<path d="M217.5 52.5C217.5 127.027 152.838 187.5 73 187.5C-6.8376 187.5 -71.5 127.027 -71.5 52.5C-71.5 -22.0271 -6.8376 -82.5 73 -82.5C152.838 -82.5 217.5 -22.0271 217.5 52.5Z" stroke="black"/>
<path d="M190.5 70.5C190.5 145.027 125.838 205.5 46 205.5C-33.8376 205.5 -98.5 145.027 -98.5 70.5C-98.5 -4.02707 -33.8376 -64.5 46 -64.5C125.838 -64.5 190.5 -4.02707 190.5 70.5Z" stroke="black"/>
<ellipse cx="17" cy="779.5" rx="70" ry="68.5" fill="url(#paint1_linear_407_835)"/>
<path d="M95.5 780C95.5 822.241 60.5873 856.5 17.5 856.5C-25.5873 856.5 -60.5 822.241 -60.5 780C-60.5 737.759 -25.5873 703.5 17.5 703.5C60.5873 703.5 95.5 737.759 95.5 780Z" stroke="#C6C3C3"/>
<ellipse cx="373.5" cy="862" rx="137.5" ry="126" fill="url(#paint2_linear_407_835)"/>
<path d="M545.5 862C545.5 940.663 476.367 1004.5 391 1004.5C305.633 1004.5 236.5 940.663 236.5 862C236.5 783.337 305.633 719.5 391 719.5C476.367 719.5 545.5 783.337 545.5 862Z" stroke="#FDC304"/>
<path d="M523.5 879C523.5 957.663 454.367 1021.5 369 1021.5C283.633 1021.5 214.5 957.663 214.5 879C214.5 800.337 283.633 736.5 369 736.5C454.367 736.5 523.5 800.337 523.5 879Z" stroke="#FFC403"/>
<circle cx="399" cy="217" r="26" fill="url(#paint3_linear_407_835)"/>
<circle cx="399" cy="217" r="25" stroke="url(#paint4_linear_407_835)" stroke-opacity="0.624524" stroke-width="2"/>
<path d="M427.5 131.5C427.5 165.209 401.289 192.5 369 192.5C336.711 192.5 310.5 165.209 310.5 131.5C310.5 97.7909 336.711 70.5 369 70.5C401.289 70.5 427.5 97.7909 427.5 131.5Z" stroke="#5466FF"/>
<path d="M427.5 131.5C427.5 165.209 401.289 192.5 369 192.5C336.711 192.5 310.5 165.209 310.5 131.5C310.5 97.7909 336.711 70.5 369 70.5C401.289 70.5 427.5 97.7909 427.5 131.5Z" stroke="#5466FF"/>
<path d="M427.5 131.5C427.5 165.209 401.289 192.5 369 192.5C336.711 192.5 310.5 165.209 310.5 131.5C310.5 97.7909 336.711 70.5 369 70.5C401.289 70.5 427.5 97.7909 427.5 131.5Z" stroke="#5466FF"/>
<ellipse cx="368.5" cy="136" rx="58.5" ry="57" fill="url(#paint5_linear_407_835)"/>
</g>
<defs>
<linearGradient id="paint0_linear_407_835" x1="-150" y1="-201" x2="191" y2="220.5" gradientUnits="userSpaceOnUse">
<stop offset="0.080394" stop-color="#00246B" stop-opacity="0"/>
<stop offset="0.265245" stop-color="#00246B" stop-opacity="0.479594"/>
<stop offset="0.391501" stop-color="#00246B" stop-opacity="0.624524"/>
<stop offset="0.528481" stop-color="#00246B" stop-opacity="0.692708"/>
<stop offset="0.737155" stop-color="#00246B"/>
</linearGradient>
<linearGradient id="paint1_linear_407_835" x1="208.5" y1="567" x2="-21" y2="906" gradientUnits="userSpaceOnUse">
<stop offset="0.447917" stop-color="#D7D7C3"/>
<stop offset="0.651178" stop-color="#D7D7C3" stop-opacity="0.52764"/>
<stop offset="1" stop-color="#D7D7C3" stop-opacity="0"/>
</linearGradient>
<linearGradient id="paint2_linear_407_835" x1="373.5" y1="736" x2="373.5" y2="988" gradientUnits="userSpaceOnUse">
<stop offset="0.171875" stop-color="#F4CA41"/>
<stop offset="0.453125" stop-color="#F4CA41" stop-opacity="0.734266"/>
<stop offset="1" stop-color="#F4CA41" stop-opacity="0"/>
</linearGradient>
<linearGradient id="paint3_linear_407_835" x1="399" y1="77" x2="411.5" y2="243" gradientUnits="userSpaceOnUse">
<stop stop-color="#7785FF"/>
<stop offset="1" stop-color="#7785FF" stop-opacity="0"/>
</linearGradient>
<linearGradient id="paint4_linear_407_835" x1="197" y1="-216" x2="421.53" y2="274.411" gradientUnits="userSpaceOnUse">
<stop stop-color="#00246B"/>
<stop offset="0.723311" stop-color="#00246B" stop-opacity="0.0836824"/>
<stop offset="1" stop-color="#00246B" stop-opacity="0"/>
</linearGradient>
<linearGradient id="paint5_linear_407_835" x1="368.5" y1="63.5514" x2="368.5" y2="299.542" gradientUnits="userSpaceOnUse">
<stop stop-color="#7785FF"/>
<stop offset="0.500975" stop-color="#7785FF" stop-opacity="0.241612"/>
<stop offset="1" stop-color="#7785FF" stop-opacity="0"/>
</linearGradient>
<clipPath id="clip0_407_835">
<rect width="428" height="926" fill="white"/>
</clipPath>
</defs>
</svg>
